<svg id="Camada_1" data-name="Camada 1" xmlns="http://www.w3.org/2000/svg" viewBox="0 0 370.34 555.79"><defs><style>.cls-1{fill:#e78601;}.cls-2{fill:#4577bb;}</style></defs><path class="cls-1" d="M490.79,524.18a309.59,309.59,0,0,0-157.58,48.73l-2.37,1.51-69.13,49.1A89.39,89.39,0,0,1,132,594.39a2.22,2.22,0,0,0-4.11,1.55l28,131.7H328.74l156.6-17a7,7,0,0,0,5.45-3.73Z" transform="translate(-120.45 -172.03)"/><path class="cls-2" d="M490.79,577.21l-4.15-.92a246.39,246.39,0,0,0-159.72,18.1L254,633.3a89.37,89.37,0,0,1-122-38.81,2.22,2.22,0,0,0-4.2,1L130.28,725a6.88,6.88,0,0,0,.56,2.57l.51.26a14.33,14.33,0,0,1,2.17-.18H360.07l130.72-2.48Z" transform="translate(-120.45 -172.03)"/><path class="cls-1" d="M490.77,304.39,472.2,172H138.27L120.45,304.16a15.22,15.22,0,0,1,.33,3.09V334l4.63,1.21A214.17,214.17,0,0,0,290,311.73l66.63-44.68a88,88,0,0,1,130,38.5A2.19,2.19,0,0,0,490.77,304.39Z" transform="translate(-120.45 -172.03)"/><path class="cls-2" d="M121.74,172a7,7,0,0,0-.95,3.52V314.26a.73.73,0,0,0,.55.7l10.34,2.51a246.41,246.41,0,0,0,160-15.07l73.62-37.53A89.37,89.37,0,0,1,486.57,306a2.22,2.22,0,0,0,4.22-1V175.55a7,7,0,0,0-1-3.52Z" transform="translate(-120.45 -172.03)"/></svg>